<?xml version="1.0" encoding="UTF-8"?>
<svg id="Layer_1" xmlns="http://www.w3.org/2000/svg" xmlns:xlink="http://www.w3.org/1999/xlink" viewBox="0 0 1920 1200">
  <defs>
    <style>
      .cls-1 {
        fill: #123062;
      }

      .cls-2 {
        fill: url(#linear-gradient-4);
      }

      .cls-3 {
        fill: url(#linear-gradient-3);
      }

      .cls-4 {
        fill: url(#linear-gradient-2);
      }

      .cls-5 {
        fill: #525a5f;
      }

      .cls-6 {
        fill: url(#linear-gradient);
      }

      .cls-7 {
        fill: #1e3361;
      }
    </style>
    <linearGradient id="linear-gradient" x1="611.61" y1="297.69" x2="1362.95" y2="297.69" gradientUnits="userSpaceOnUse">
      <stop offset="0" stop-color="#233e6f"/>
      <stop offset="1" stop-color="#243c69"/>
    </linearGradient>
    <linearGradient id="linear-gradient-2" x1="818.26" y1="329.61" x2="1336.82" y2="329.61" gradientUnits="userSpaceOnUse">
      <stop offset="0" stop-color="#b8ec59"/>
      <stop offset=".42" stop-color="#b6eb58"/>
      <stop offset=".57" stop-color="#afe857"/>
      <stop offset=".68" stop-color="#a3e356"/>
      <stop offset=".76" stop-color="#92dc53"/>
      <stop offset=".84" stop-color="#7cd350"/>
      <stop offset=".9" stop-color="#61c74c"/>
      <stop offset=".96" stop-color="#41ba48"/>
      <stop offset="1" stop-color="#29b045"/>
    </linearGradient>
    <linearGradient id="linear-gradient-3" x1="1100.01" y1="596.78" x2="666.1" y2="1030.68" gradientUnits="userSpaceOnUse">
      <stop offset="0" stop-color="#95de6c"/>
      <stop offset=".09" stop-color="#7ed05e"/>
      <stop offset=".24" stop-color="#61bf4d"/>
      <stop offset=".39" stop-color="#4ab13f"/>
      <stop offset=".56" stop-color="#3aa836"/>
      <stop offset=".75" stop-color="#30a230"/>
      <stop offset="1" stop-color="#2ea12f"/>
    </linearGradient>
    <linearGradient id="linear-gradient-4" x1="534.21" y1="832.61" x2="1106.9" y2="832.61" gradientUnits="userSpaceOnUse">
      <stop offset="0" stop-color="#334f7a"/>
      <stop offset="1" stop-color="#385880"/>
    </linearGradient>
  </defs>
  <path class="cls-6" d="M710.25,425.32c-32.88.21-65.76.43-98.64.64,27.77-39.37,73.32-94.78,142.2-146.04,34.28-25.51,84.83-62.47,160.77-86.47,39.67-12.53,135.32-41.39,246.6-9.61,31.18,8.91,81.52,23.91,129.39,68.54,42.7,39.8,62.99,84.1,72.38,109.53-16.68-29.57-48.3-75.54-103.12-108.89-131.37-79.91-284.61-19.6-331.15-1.28-117.04,46.07-186.28,128.52-218.42,173.58Z"/>
  <path class="cls-4" d="M1287.36,426.6h80.09c-23.64-80.99-66-121.53-89.06-139.63-111.58-87.62-305.81-69.77-472.71,57.01,37.21-18.1,163.05-77.06,264.54-80.71,27.93-1,47.28,2.42,58.93,5.12,25.52,5.91,73.35,22.08,112.09,66.61,30.34,34.87,41.61,71.61,46.12,91.6Z"/>
  <path class="cls-7" d="M399.73,623.12c115.91,17.41,233.11,23.14,349.88,16.04,58.34-3.19,116.42-10.99,174.2-19.48,139.83-18.44,282.11-14.67,422.16-.41,32.38,3.11,72.48,8.31,104.78,12.9,11.09,1.5,23.87,3.48,34.79,5.23,0,0,34.72,5.62,34.72,5.62-128.05-14.45-256.45-25.33-385.25-24.57-64.15.37-128.57,3.49-192.25,11.06-11.22,1.24-23.55,2.96-34.71,4.48-168.24,25.91-341.59,23.42-508.32-10.87h0Z"/>
  <g>
    <path class="cls-3" d="M1204.75,732.2h96.6c-30.35,46.63-151.44,220.63-367.52,259.29-87.4,15.64-164.15,1.45-164.15,1.45-36.98-7.42-92.7-18.6-145.26-63.92-54.15-46.68-74.93-103.71-82.8-130.74,17.85,32.4,54.31,87.19,119.84,123.47,151.08,83.64,323.02-5.1,360.98-24.69,90.74-46.84,148.37-114.32,182.3-164.87Z"/>
    <path class="cls-2" d="M534.21,732.2h83.31c5.81,23.16,27.19,95.85,96.02,140.33,47.81,30.9,95.04,33.02,130.53,34.16,123.01,3.95,218.69-55.61,262.84-87.93-51.68,41.62-134.87,94.34-243.92,109.94-67.67,9.68-112.74.41-122.53-1.72-29.21-6.34-110.1-25.17-164.33-99.06-27.12-36.95-37.49-73.93-41.9-95.72Z"/>
  </g>
  <g>
    <path class="cls-1" d="M519.22,596.36c-7.23,0-13.71-.85-19.45-2.55-5.74-1.7-10.67-3.72-14.77-6.06-4.11-2.34-7.41-4.71-9.89-7.12-2.48-2.41-4.01-4.32-4.57-5.74l.64-.64c1.28-1.84,2.69-3.33,4.25-4.46,1.42-.85,2.9-1.28,4.46-1.28.99,0,1.95.14,2.87.43.92.29,1.95.64,3.08,1.06,1.13.29,2.27.67,3.4,1.17,1.13.5,2.41,1.1,3.83,1.81,2.83,1.14,6.16,2.16,9.99,3.08,3.83.92,8.43,1.52,13.82,1.81h2.34c5.24,0,9.71-.6,13.39-1.81,3.68-1.2,6.66-2.76,8.93-4.68,2.27-1.91,3.9-4.04,4.89-6.38.99-2.34,1.49-4.57,1.49-6.7.14-3.68-.96-7.05-3.3-10.1-2.34-3.05-5.56-5.99-9.67-8.82-4.11-2.83-8.93-5.74-14.46-8.72s-11.41-6.16-17.64-9.57c-10.2-5.81-17.79-12.29-22.75-19.45-4.96-7.15-7.09-14.7-6.38-22.64.56-5.95,2.2-11.12,4.89-15.52,2.69-4.39,6.06-8.04,10.1-10.95,4.04-2.9,8.57-5.03,13.61-6.38,5.03-1.35,10.1-2.02,15.2-2.02,8.64,0,16.23,1.14,22.75,3.4,6.52,2.27,12.04,4.75,16.58,7.44,5.24,3.12,9.71,6.66,13.39,10.63l-.43.64c-1.7,2.13-3.12,3.54-4.25,4.25-1.42.99-2.98,1.49-4.68,1.49-1.56,0-3.47-.49-5.74-1.49-1.14-.43-2.31-.88-3.51-1.38-1.21-.49-2.52-1.03-3.93-1.59-4.11-1.56-8.47-2.8-13.07-3.72-4.61-.92-8.68-1.31-12.22-1.17-1.84,0-3.83.14-5.95.43-2.13.29-4.15.78-6.06,1.49-1.91.71-3.61,1.7-5.1,2.98s-2.52,2.91-3.08,4.89c-1.28,4.25-.39,8.01,2.66,11.27,3.05,3.26,7.15,6.45,12.33,9.57,5.17,3.12,10.91,6.2,17.22,9.25,6.3,3.05,12.22,6.48,17.75,10.31,7.65,5.39,13.36,10.88,17.11,16.48,3.75,5.6,6.06,11.09,6.91,16.48.85,5.39.56,10.56-.85,15.52-1.42,4.96-3.4,9.35-5.95,13.18-4.54,7.09-11.3,12.51-20.3,16.26-9,3.75-18.96,5.63-29.87,5.63Z"/>
    <path class="cls-1" d="M662.29,444.15c9.35,0,18.39,1.63,27.1,4.89,8.72,3.26,16.48,8.08,23.28,14.46,6.8,6.38,12.22,14.28,16.26,23.7,4.04,9.43,6.06,20.37,6.06,32.84s-2.02,23.46-6.06,32.95c-4.04,9.5-9.46,17.47-16.26,23.92-6.8,6.45-14.56,11.3-23.28,14.56-8.72,3.26-17.75,4.89-27.1,4.89s-18.39-1.63-27.1-4.89c-8.72-3.26-16.48-8.11-23.28-14.56-6.8-6.45-12.22-14.42-16.26-23.92-4.04-9.49-6.06-20.48-6.06-32.95s2.02-23.42,6.06-32.84c4.04-9.42,9.46-17.33,16.26-23.7,6.8-6.38,14.56-11.19,23.28-14.46,8.72-3.26,17.75-4.89,27.1-4.89ZM662.29,578.08c5.53,0,10.95-1.13,16.26-3.4,5.31-2.27,10.1-5.81,14.35-10.63,4.25-4.82,7.65-10.84,10.2-18.07s3.83-15.87,3.83-25.94-1.28-18.49-3.83-25.72c-2.55-7.23-5.95-13.18-10.2-17.86-4.25-4.68-9.03-8.15-14.35-10.42-5.31-2.27-10.74-3.4-16.26-3.4s-10.95,1.14-16.26,3.4c-5.31,2.27-10.1,5.74-14.35,10.42-4.25,4.68-7.65,10.63-10.2,17.86-2.55,7.23-3.83,15.8-3.83,25.72s1.28,18.71,3.83,25.94,5.95,13.25,10.2,18.07c4.25,4.82,9.03,8.36,14.35,10.63,5.31,2.27,10.74,3.4,16.26,3.4Z"/>
    <path class="cls-1" d="M751.78,465.84c-.14-4.25-.21-7.69-.21-10.31s-.07-4.71-.21-6.27c-.14-1.7-.29-2.98-.43-3.83,17.29,0,25.94,8.29,25.94,24.87l.43,54c0,9.21.39,16.94,1.17,23.17.78,6.24,2.41,11.27,4.89,15.09,2.48,3.83,6.02,6.56,10.63,8.18,4.6,1.63,10.74,2.44,18.39,2.44,3.54,0,6.77-.03,9.67-.11,2.9-.07,5.35-.18,7.34-.32,2.41-.14,4.53-.35,6.38-.64v1.28c0,2.27-.53,4.64-1.59,7.12-1.06,2.48-2.69,4.71-4.89,6.7-2.2,1.99-4.96,3.65-8.29,5-3.33,1.35-7.33,2.02-12.01,2.02-11.34,0-20.69-1.17-28.06-3.51-7.37-2.34-13.22-6.27-17.54-11.8-4.32-5.53-7.33-12.86-9.03-22-1.7-9.14-2.55-20.44-2.55-33.91v-57.18Z"/>
    <path class="cls-1" d="M978.82,582.33c.57,1.42,1.13,2.76,1.7,4.04.57,1.28,1.06,2.48,1.49,3.61.56,1.28,1.06,2.55,1.49,3.83-4.25,1.13-8.29,1.49-12.12,1.06-3.26-.29-6.56-1.28-9.89-2.98-3.33-1.7-5.92-4.82-7.76-9.35-.85-1.98-2.41-5.88-4.68-11.69-2.27-5.81-4.96-12.61-8.08-20.41h-60.37c-3.12,7.8-5.81,14.6-8.08,20.41-2.27,5.81-3.83,9.71-4.68,11.69-1.99,4.54-4.61,7.65-7.87,9.35-3.26,1.7-6.52,2.69-9.78,2.98-3.83.43-7.87.07-12.12-1.06.43-1.28.92-2.55,1.49-3.83.43-1.13.88-2.34,1.38-3.61.5-1.28,1.1-2.62,1.81-4.04.99-2.55,2.73-6.94,5.21-13.18,2.48-6.23,5.35-13.39,8.61-21.47,3.26-8.08,6.7-16.58,10.31-25.51,3.61-8.93,7.02-17.43,10.2-25.51s6.06-15.2,8.61-21.36c2.55-6.16,4.32-10.52,5.31-13.07,1.56-3.97,3.22-7.12,5-9.46,1.77-2.34,3.51-4.15,5.21-5.42,1.7-1.28,3.36-2.09,5-2.44,1.63-.35,3.15-.53,4.57-.53s2.94.18,4.57.53c1.63.36,3.3,1.17,5,2.44,1.7,1.28,3.43,3.08,5.21,5.42,1.77,2.34,3.44,5.49,5,9.46.99,2.55,2.73,6.91,5.21,13.07,2.48,6.16,5.35,13.29,8.61,21.36,3.26,8.08,6.7,16.58,10.31,25.51,3.61,8.93,7.05,17.43,10.31,25.51,3.26,8.08,6.13,15.24,8.61,21.47,2.48,6.24,4.22,10.63,5.21,13.18ZM932.9,529.4c-2.84-7.08-5.6-13.99-8.29-20.73-2.69-6.73-5.03-12.79-7.02-18.18-2.55-6.23-4.82-12.19-6.8-17.86-2.27,5.67-4.61,11.62-7.02,17.86-2.13,5.39-4.46,11.45-7.01,18.18-2.55,6.73-5.25,13.64-8.08,20.73h44.22Z"/>
    <path class="cls-1" d="M1050.67,596.36c-9.35,0-18.43-1.63-27.21-4.89-8.79-3.26-16.55-8.08-23.28-14.46-6.73-6.38-12.15-14.31-16.26-23.81-4.11-9.49-6.16-20.48-6.16-32.95s2.05-23.45,6.16-32.95c4.11-9.49,9.53-17.43,16.26-23.81,6.73-6.38,14.49-11.16,23.28-14.35,8.79-3.19,17.86-4.78,27.21-4.78,5.95,0,11.19.67,15.73,2.02,4.53,1.35,8.47,2.94,11.8,4.78,3.33,1.84,5.99,3.72,7.97,5.63,1.98,1.91,3.33,3.44,4.04,4.57-.43.85-.92,1.63-1.49,2.34-.43.71-.96,1.38-1.59,2.02-.64.64-1.31,1.1-2.02,1.38-1.56.99-3.33,1.49-5.32,1.49s-3.83-.32-5.53-.96c-1.7-.64-3.58-1.31-5.63-2.02-2.06-.71-4.5-1.38-7.33-2.02-2.84-.64-6.38-.96-10.63-.96-5.53,0-10.95,1.14-16.26,3.4-5.31,2.27-10.1,5.74-14.35,10.42-4.25,4.68-7.65,10.67-10.2,17.96-2.55,7.3-3.83,15.91-3.83,25.83s1.28,18.71,3.83,25.94c2.55,7.23,5.95,13.22,10.2,17.96,4.25,4.75,9.03,8.26,14.35,10.52,5.32,2.27,10.74,3.4,16.26,3.4,4.25,0,7.79-.32,10.63-.96,2.83-.64,5.28-1.31,7.33-2.02,2.05-.71,3.93-1.38,5.63-2.02s3.54-.96,5.53-.96,3.75.5,5.32,1.49c1.56,1.14,2.76,2.27,3.61,3.4.56.71,1.06,1.49,1.49,2.34-.71,1.28-2.06,2.87-4.04,4.78-1.99,1.91-4.64,3.76-7.97,5.53-3.33,1.77-7.26,3.33-11.8,4.68-4.54,1.35-9.78,2.02-15.73,2.02Z"/>
    <path class="cls-1" d="M1187.36,470.3c0-8.5,2.23-14.6,6.7-18.28,4.46-3.68,11.09-5.53,19.88-5.53-.14.99-.29,2.34-.43,4.04-.14,1.56-.25,3.65-.32,6.27-.07,2.62-.11,6.06-.11,10.31l-.21,106.5c0,4.39.03,7.9.11,10.52.07,2.62.18,4.71.32,6.27.14,1.7.28,2.98.43,3.83-8.79,0-15.45-1.81-19.98-5.42-4.54-3.61-6.8-9.67-6.8-18.18v-45.49h-59.95v48.47c0,4.39.03,7.9.11,10.52.07,2.62.18,4.71.32,6.27.14,1.7.28,2.98.43,3.83-8.79,0-15.49-1.81-20.09-5.42-4.61-3.61-6.91-9.67-6.91-18.18l.43-100.34c0-8.5,2.23-14.6,6.7-18.28,4.46-3.68,11.09-5.53,19.88-5.53-.14.99-.29,2.34-.43,4.04-.14,1.56-.25,3.65-.32,6.27-.07,2.62-.11,6.06-.11,10.31v36.99h59.95l.43-33.8Z"/>
    <path class="cls-1" d="M1333.83,571.92v1.49c0,4.82-.85,8.58-2.55,11.27-1.42,2.84-3.61,4.96-6.59,6.38-2.69,1.56-5.78,2.44-9.25,2.66-3.47.21-6.63.39-9.46.53-12.9.56-23.99-.11-33.27-2.02-9.28-1.91-16.94-5.56-22.96-10.95-6.03-5.38-10.49-12.72-13.39-22-2.91-9.28-4.36-20.94-4.36-34.97v-40.18c0-9.64,1.49-17.22,4.46-22.75,1.56-2.83,3.4-5.1,5.53-6.8,2.13-1.7,4.6-3.12,7.44-4.25,1.84-.71,3.75-1.31,5.74-1.81,1.98-.49,4.11-.88,6.38-1.17,2.98-.28,6.09-.49,9.35-.64,3.26-.14,6.66-.21,10.2-.21h18.71c9.07,0,15.59-.14,19.56-.43,3.97-.28,6.52-.49,7.65-.64h1.7v1.28c0,4.82-.85,8.58-2.55,11.27-1.56,2.69-3.76,4.89-6.59,6.59-2.84,1.42-5.85,2.27-9.04,2.55-3.19.29-6.41.43-9.67.43h-36.14c-.85.14-1.56.29-2.12.43-.57.14-1.06.36-1.49.64-.85.43-1.49.99-1.91,1.7-.57.71-.92,1.67-1.06,2.87-.14,1.21-.21,2.59-.21,4.15l.64,25.94h52.3c0,6.38-1.77,11.48-5.32,15.31-3.54,3.83-8.58,5.74-15.09,5.74h-32.1c-.29,9.5.35,17.4,1.91,23.7,1.56,6.31,4.07,11.3,7.55,14.99,3.47,3.69,8,6.31,13.6,7.87,5.6,1.56,12.29,2.34,20.09,2.34,9.21,0,16.33-.14,21.36-.43,5.03-.28,8.11-.49,9.25-.64h.42l1.28-.21Z"/>
    <path class="cls-1" d="M1408.23,575.95c.14,2.98.25,5.53.32,7.65.07,2.13.11,3.9.11,5.31v2.98c0,.43.07.78.21,1.06v1.28c-8.79,0-15.52-1.84-20.19-5.53-4.68-3.68-7.02-9.78-7.02-18.28v-25.94c-1.28-2.98-3.01-6.77-5.21-11.37-2.2-4.6-4.57-9.64-7.12-15.09-2.55-5.45-5.21-11.09-7.97-16.9-2.76-5.81-5.39-11.41-7.87-16.79-2.48-5.38-4.78-10.27-6.91-14.67-2.13-4.39-3.76-7.87-4.89-10.42-1.42-2.83-2.55-5.31-3.4-7.44-.57-1.28-.99-2.55-1.28-3.83,3.97-.99,7.79-1.28,11.48-.85,3.26.29,6.55,1.31,9.88,3.08,3.33,1.77,6.13,4.78,8.4,9.03.85,1.56,1.88,3.65,3.08,6.27,1.2,2.62,2.55,5.49,4.04,8.61,1.49,3.12,3.08,6.38,4.78,9.78s3.33,6.8,4.89,10.2c3.68,7.8,7.58,16.16,11.69,25.08,4.11-8.93,8-17.29,11.69-25.08,1.56-3.4,3.15-6.8,4.78-10.2,1.63-3.4,3.19-6.66,4.68-9.78,1.49-3.12,2.87-5.99,4.14-8.61,1.28-2.62,2.34-4.71,3.19-6.27,2.26-4.25,5.06-7.26,8.4-9.03,3.33-1.77,6.62-2.8,9.89-3.08,3.68-.43,7.58-.14,11.69.85-.43,1.28-.92,2.55-1.49,3.83-.85,2.13-1.99,4.61-3.4,7.44-1.14,2.55-2.76,6.06-4.89,10.52s-4.46,9.39-7.01,14.77c-2.55,5.39-5.21,11.05-7.97,17.01-2.76,5.95-5.46,11.69-8.08,17.22-2.62,5.53-5.07,10.67-7.33,15.41-2.27,4.75-4.04,8.54-5.32,11.37v30.4Z"/>
  </g>
  <g>
    <path class="cls-5" d="M650.51,749.43v-9.77c-.06-2.61.06-6.78.36-12.52.36-4.26.53-8.44.53-12.52v-2.31c-.95,1.06-2.32,3.14-4.1,6.22-1.54,2.61-2.97,4.47-4.27,5.6-1.96,1.66-4.39,2.49-7.3,2.49-12.53,0-18.79-8.79-18.79-26.38,0-10.24.89-20.07,2.67-29.49.47-2.55,1.07-4.2,1.78-4.97.95-1.01,2.6-1.51,4.97-1.51,3.49,0,5.24.65,5.24,1.95,0,1.54-.47,4.05-1.42,7.54-1.13,4.2-1.78,6.77-1.95,7.72-.71,4.08-1.07,11.32-1.07,21.73,0,11.88,2.1,17.83,6.31,17.83,5.33,0,10.21-7.21,14.66-21.64,3.38-10.94,5.33-20.57,5.86-28.91.12-1.89,1.1-2.84,2.93-2.84h4.71c1.36.59,2.04,1.51,2.04,2.75,0,1.84-.24,4.41-.71,7.73-.47,3.67-.74,6.28-.8,7.82l-1.24,30.91c-.47,11.78-.71,22.09-.71,30.91,0,2.49-1.3,3.73-3.91,3.73-1.95,0-3.88-.68-5.77-2.04Z"/>
    <path class="cls-5" d="M702.03,706.17h.36c1.66,0,3.24-1.88,4.75-5.64,1.51-3.76,2.8-5.64,3.86-5.64,1.36,0,2.04,1.06,2.04,3.19,0,3.25-1.1,6.47-3.29,9.66-2.31,3.49-5,5.43-8.08,5.85-1.24,5.02-2.49,8.39-3.73,10.1-2.01,2.78-5.21,4.16-9.59,4.16-5.39,0-9.56-1.92-12.52-5.76-2.72-3.48-4.09-8-4.09-13.56,0-2.18.18-3.87.53-5.05l.71-2.31c1.01-3.25,2.43-6,4.26-8.24,2.37-2.89,4.97-4.34,7.82-4.34,3.67,0,7.34,1.98,11.01,5.95,3.67,3.97,5.65,7.85,5.95,11.64ZM681.07,712.07c0,2.54.38,4.75,1.15,6.64,1.07,2.66,2.66,3.98,4.8,3.98,1.84,0,3.58-1.62,5.24-4.87,1.42-2.83,2.13-5.22,2.13-7.17,0-.35-.8-2.15-2.4-5.4-1.6-3.24-2.4-5.96-2.4-8.14-.65-.29-1.24-.44-1.78-.44-2.01,0-3.7,2.12-5.06,6.37-1.13,3.48-1.69,6.49-1.69,9.03Z"/>
    <path class="cls-5" d="M723.61,722.25c2.25-2.01,4.41-5.33,6.48-9.95,1.89-4.14,3.11-7.96,3.64-11.46.47-3.02.95-4.85,1.42-5.51.83-1.18,2.55-1.78,5.15-1.78s4,1.25,4,3.74c0,.59-.47,2.41-1.42,5.44-.24.77-.36,4.4-.36,10.87,0,1.37.24,2.79.71,4.28.59,1.96,1.42,2.94,2.49,2.94.65,0,1.98-.84,4-2.53,2.01-1.69,3.43-2.53,4.26-2.53,1.24,0,1.87.59,1.87,1.78,0,1.78-1.55,3.7-4.66,5.77-3.11,2.07-5.61,3.11-7.51,3.11-2.49,0-4.5-.89-6.04-2.67-.77-.95-1.92-2.9-3.46-5.86-1.01,2.73-1.95,4.77-2.84,6.13-1.54,2.37-3.29,3.55-5.24,3.55-6.1,0-10.01-1.87-11.73-5.6-1.01-2.19-1.51-6.99-1.51-14.39,0-1.54.19-3.85.58-6.93.38-3.08.58-5.4.58-6.97s.22-2.72.67-3.46c.44-.74,1.43-1.11,2.98-1.11,1.12,0,2.31.15,3.55.44,1.78.42,2.6.98,2.49,1.69-1.01,5.74-1.51,11.13-1.51,16.17v5.33c0,4.26.47,7.43,1.42,9.5Z"/>
    <path class="cls-5" d="M763.14,697.73c1.66-1.78,2.63-2.78,2.93-3.02,1.24-1.01,2.52-1.51,3.82-1.51,3.91,0,5.86,1.72,5.86,5.15,0,1.01-.37,1.84-1.11,2.49-.74.65-1.61.98-2.62.98s-1.87-.35-2.58-1.06c-4.44,6.99-6.66,15.81-6.66,26.47,0,.53-.77.8-2.31.8-3.14,0-5.06-.59-5.77-1.78-.47-.77-.71-2.88-.71-6.32,0-1.19-.03-2.94-.09-5.25-.06-2.31-.09-4.06-.09-5.25,0-14.12,1.18-21.22,3.55-21.28l3.46-.09c1.3-.06,2.07.3,2.31,1.07v8.61Z"/>
    <path class="cls-5" d="M816.87,704.25c-.53,3.49-.8,10.11-.8,19.87,0,1.66-.74,2.75-2.22,3.28-.83.29-2.34.44-4.53.44-2.61,0-3.91-2.04-3.91-6.12,0-17.44.95-33.67,2.84-48.69-1.13.12-3.85.71-8.17,1.78-3.79.95-6.45,1.42-7.99,1.42-.89,0-1.78-.44-2.66-1.33-.89-.89-1.33-1.78-1.33-2.67,0-1.66,3.41-3.61,10.21-5.86,6.1-2.01,10.22-3.02,12.35-3.02,10.89,0,19.39.98,25.49,2.93,10.01,3.19,15.01,9.08,15.01,17.65,0,6.92-4.18,12.24-12.52,15.97-6.52,2.9-13.77,4.35-21.76,4.35ZM842.72,680.68c0-3.02-2.52-5.24-7.55-6.66-3.55-1.01-7.25-1.51-11.1-1.51-1.54,0-3.14.24-4.8.71-1.36,7.7-1.95,15.93-1.78,24.69,4.32-.18,8.41-1.15,12.26-2.93,4.14-1.89,7.43-4.47,9.86-7.73,2.07-2.78,3.11-4.97,3.11-6.57Z"/>
    <path class="cls-5" d="M881.72,695.96l.98-.27c2.19,0,3.46.5,3.82,1.51-1.54,4.21-2.31,8.2-2.31,11.99v7.37c0,2.66.86,4,2.58,4,1.07,0,2.58-.84,4.53-2.53,1.95-1.69,3.11-2.53,3.46-2.53,1.07,0,1.6.53,1.6,1.6,0,2.13-.93,4.07-2.8,5.82-1.87,1.75-3.86,2.62-6,2.62-4.68,0-7.97-1.87-9.86-5.6l-4.62,5.48c-1.78,1.62-3.91,2.43-6.4,2.43-5.09,0-8.74-1.19-10.93-3.56-2.19-2.37-3.29-6.14-3.29-11.31s1.07-9.85,3.2-14.78c2.66-6.17,6.13-9.26,10.39-9.26,7.64,0,12.85,2.34,15.63,7.02ZM862.62,716.28c0,4.4.83,6.59,2.49,6.59,1.01,0,1.95-.59,2.84-1.78,3.08-4.22,4.94-7.25,5.6-9.09.41-1.19,1.07-4.69,1.95-10.51.36-2.32.53-3.39.53-3.21,0-.89-.42-1.63-1.24-2.23-.83-.59-1.72-.89-2.67-.89-3.26,0-5.77,2.82-7.55,8.47-1.3,4.16-1.95,8.38-1.95,12.65Z"/>
    <path class="cls-5" d="M904.1,697.73c1.66-1.78,2.63-2.78,2.93-3.02,1.24-1.01,2.52-1.51,3.82-1.51,3.91,0,5.86,1.72,5.86,5.15,0,1.01-.37,1.84-1.11,2.49-.74.65-1.61.98-2.62.98s-1.87-.35-2.58-1.06c-4.44,6.99-6.66,15.81-6.66,26.47,0,.53-.77.8-2.31.8-3.14,0-5.06-.59-5.77-1.78-.47-.77-.71-2.88-.71-6.32,0-1.19-.03-2.94-.09-5.25-.06-2.31-.09-4.06-.09-5.25,0-14.12,1.18-21.22,3.55-21.28l3.46-.09c1.3-.06,2.07.3,2.31,1.07v8.61Z"/>
    <path class="cls-5" d="M921.42,686.45c.18-2.49.32-5,.44-7.55.41-3.02,1.83-4.47,4.26-4.35.77.06,2.13.15,4.09.27,1.6.3,2.4,1.12,2.4,2.49-.77,1.01-1.21,2.28-1.33,3.82.06-.83.09.59.09,4.26,1.24.41,3.05.62,5.42.62.89,0,1.84.47,2.84,1.42,1.01.95,1.51,1.87,1.51,2.75l-.98,1.42c-2.13.24-5.33.8-9.59,1.69-.47,6.87-.71,11.67-.71,14.39,0,4.5.03,7.08.09,7.73.36,3.91,1.3,5.86,2.84,5.86,1.07,0,2.96-.62,5.68-1.87,3.38-1.54,5.39-2.4,6.04-2.58.65.95.98,1.75.98,2.4,0,1.54-1.92,3.38-5.77,5.51-3.55,1.95-6.25,2.93-8.08,2.93-7.7,0-11.55-5.77-11.55-17.32,0-1.72.12-4.28.36-7.68.24-3.4.36-5.96.36-7.68v-1.78c-6.1-.71-9.15-2.07-9.15-4.09,0-1.12,1.54-1.83,4.62-2.13l5.15-.53Z"/>
    <path class="cls-5" d="M956.33,700.4c2.07-3.38,3.23-5.18,3.46-5.42,1.72-2.19,3.46-3.29,5.24-3.29,3.61,0,6.72,1.13,9.33,3.38,2.72,2.43,4.09,5.42,4.09,8.97,0,1.13-.15,2.83-.44,5.11-.3,2.28-.44,3.98-.44,5.11,0,3.2.92,4.8,2.75,4.8.71,0,1.97-.49,3.77-1.47,1.81-.98,3.03-1.47,3.69-1.47,1.18,0,1.78.77,1.78,2.31,0,1.72-1.36,3.29-4.09,4.71-2.43,1.3-4.59,1.95-6.48,1.95-3.79,0-6.5-.92-8.13-2.75-1.63-1.84-2.44-4.68-2.44-8.53,0-1.18.09-2.99.27-5.42.18-2.43.27-4.23.27-5.42,0-1.6-.47-2.93-1.42-4-2.84.18-5.15,2.72-6.93,7.64-.42,1.6-1.57,6.13-3.46,13.59-1.19,4.8-2.49,7.2-3.91,7.2-4.44,0-6.66-2.13-6.66-6.4,0-1.78.09-4,.27-6.66l.44-6.66c.06-.89.09-4.47.09-10.75.53-5.27,2.07-7.91,4.62-7.91,3.43,0,5.15.92,5.15,2.75,0,.71-.15,1.81-.44,3.29-.3,1.48-.42,2.61-.36,3.38v1.95Z"/>
    <path class="cls-5" d="M995.14,713.37l-.27,1.95c0,2.19.27,3.76.8,4.71.71,1.3,2.07,1.95,4.09,1.95,4.68,0,10.01-2.58,15.99-7.73,1.01-.89,2.07-1.78,3.2-2.67,1.54,0,2.31.86,2.31,2.58,0,3.08-2.64,6.22-7.91,9.42-4.86,2.96-8.94,4.44-12.26,4.44-2.01,0-4.86-1.01-8.53-3.02-2.78-1.54-4.68-3.61-5.68-6.22-.77-2.01-1.15-4.85-1.15-8.53,0-4.74.59-9.21,1.78-13.41,1.72-6.1,4.38-9.15,7.99-9.15,3.85,0,7.79,1.21,11.81,3.64,4.5,2.73,6.75,5.92,6.75,9.59,0,3.91-2.28,7.11-6.84,9.59-3.97,2.13-7.99,3.08-12.08,2.84ZM1005.89,698.35c0-2.66-1.15-4-3.46-4-2.07,0-3.82,1.87-5.24,5.6-1.07,2.84-1.6,5.54-1.6,8.08,2.72,0,5.12-.93,7.2-2.8,2.07-1.87,3.11-4.16,3.11-6.88Z"/>
    <path class="cls-5" d="M1031.65,697.73c1.66-1.78,2.64-2.78,2.93-3.02,1.24-1.01,2.52-1.51,3.82-1.51,3.91,0,5.86,1.72,5.86,5.15,0,1.01-.37,1.84-1.11,2.49-.74.65-1.61.98-2.62.98s-1.87-.35-2.58-1.06c-4.44,6.99-6.66,15.81-6.66,26.47,0,.53-.77.8-2.31.8-3.14,0-5.06-.59-5.77-1.78-.47-.77-.71-2.88-.71-6.32,0-1.19-.03-2.94-.09-5.25-.06-2.31-.09-4.06-.09-5.25,0-14.12,1.18-21.22,3.55-21.28l3.46-.09c1.3-.06,2.07.3,2.31,1.07v8.61Z"/>
    <path class="cls-5" d="M1087.07,654.65c3.43,0,6.62,1.44,9.55,4.31,2.93,2.87,4.4,6.03,4.4,9.46,0,.53-.39,1.05-1.15,1.55-.77.5-1.45.76-2.04.76-.95,0-1.84-.24-2.67-.71-.77-2.31-1.18-3.49-1.24-3.55-.47-1.12-1.19-2.16-2.13-3.11-3.43.36-5.89,4.47-7.37,12.35-.95,5.09-1.36,10.42-1.24,15.99,2.13.18,4.26.39,6.4.62,2.61.59,3.91,1.95,3.91,4.09l-1.15,1.87c-1.12.53-2.75.86-4.88.98-2.43.12-4.09.3-4.97.53-.59,2.9-.89,6.31-.89,10.22,0,1.66.06,4.13.18,7.42.12,3.29.18,5.76.18,7.42s-1.05,2.58-3.16,2.58c-2.87,0-4.6-.12-5.18-.36-1.42-.53-2.13-1.95-2.13-4.26,0-6.93.32-14.48.98-22.65h-1.51c-1.66.12-3.17-.14-4.53-.79-1.66-.76-2.49-1.9-2.49-3.42,0-1.7,1.92-2.54,5.77-2.54,1.95,0,2.96-.56,3.02-1.69.12-2.49.41-6.93.89-13.32,1.36-15.81,5.86-23.72,13.5-23.72Z"/>
    <path class="cls-5" d="M1123.67,706.17h.35c1.66,0,3.24-1.88,4.75-5.64,1.51-3.76,2.8-5.64,3.86-5.64,1.36,0,2.04,1.06,2.04,3.19,0,3.25-1.1,6.47-3.29,9.66-2.31,3.49-5,5.43-8.08,5.85-1.24,5.02-2.49,8.39-3.73,10.1-2.01,2.78-5.21,4.16-9.59,4.16-5.39,0-9.56-1.92-12.52-5.76-2.72-3.48-4.09-8-4.09-13.56,0-2.18.18-3.87.53-5.05l.71-2.31c1.01-3.25,2.43-6,4.26-8.24,2.37-2.89,4.97-4.34,7.82-4.34,3.67,0,7.34,1.98,11.01,5.95,3.67,3.97,5.66,7.85,5.95,11.64ZM1102.7,712.07c0,2.54.38,4.75,1.15,6.64,1.07,2.66,2.67,3.98,4.8,3.98,1.83,0,3.58-1.62,5.24-4.87,1.42-2.83,2.13-5.22,2.13-7.17,0-.35-.8-2.15-2.4-5.4-1.6-3.24-2.4-5.96-2.4-8.14-.65-.29-1.24-.44-1.78-.44-2.01,0-3.7,2.12-5.06,6.37-1.12,3.48-1.69,6.49-1.69,9.03Z"/>
    <path class="cls-5" d="M1143.74,697.73c1.66-1.78,2.64-2.78,2.93-3.02,1.24-1.01,2.52-1.51,3.82-1.51,3.91,0,5.86,1.72,5.86,5.15,0,1.01-.37,1.84-1.11,2.49-.74.65-1.61.98-2.62.98s-1.87-.35-2.58-1.06c-4.44,6.99-6.66,15.81-6.66,26.47,0,.53-.77.8-2.31.8-3.14,0-5.06-.59-5.77-1.78-.47-.77-.71-2.88-.71-6.32,0-1.19-.03-2.94-.09-5.25-.06-2.31-.09-4.06-.09-5.25,0-14.12,1.18-21.22,3.55-21.28l3.46-.09c1.3-.06,2.07.3,2.31,1.07v8.61Z"/>
    <path class="cls-5" d="M1196.59,717.45c-1.36,0-.25-.06,3.33-.18,3.58-.12,5.61-.18,6.08-.18,11.01,0,16.52,1.69,16.52,5.06,0,1.89-5.63,3.29-16.88,4.17-6.75.53-13.23.8-19.45.8-1.66,0-2.49-.83-2.49-2.49,0-1.42.65-3.82,1.95-7.2.3-.77.56-8.47.8-23.09.18-11.07.27-20.16.27-27.27,0-1.83,2.22-2.75,6.66-2.75s6.57,1.07,6.57,3.2c0,1.9-.3,4.41-.89,7.55-.71,3.55-1.13,6.04-1.24,7.46-1.01,14.03-1.51,22.71-1.51,26.03,0,2.13.09,3.82.27,5.06v3.82Z"/>
    <path class="cls-5" d="M1224.57,712.12c.06-.71.21-2.37.44-4.97.06-1.18.16-2.95.31-5.29.15-2.34.68-4.03,1.6-5.06.92-1.03,2.5-1.55,4.75-1.55,2.07,0,3.32.5,3.73,1.51-1.01,4.68-1.51,11.13-1.51,19.36,0,4.21.77,6.31,2.31,6.31.53,0,2.22-.72,5.06-2.18,2.84-1.45,4.74-2.18,5.68-2.18s1.42.56,1.42,1.69c0,.95-.86,2.19-2.58,3.73-2.01,1.84-3.52,2.99-4.53,3.46-1.48.71-3.38,1.07-5.68,1.07-4.44,0-7.52-1.66-9.24-4.97-1.19-2.37-1.78-6.01-1.78-10.93ZM1233.89,675.79c1.36,0,2.49,1.01,3.37,3.02.77,1.66,1.15,3.26,1.15,4.8s-.89,2.93-2.66,4c-1.54.95-3.14,1.42-4.8,1.42s-2.93-.61-4-1.82c-1.07-1.21-1.6-2.62-1.6-4.22s1.01-3.27,3.02-4.84c2.01-1.57,3.85-2.35,5.51-2.35Z"/>
    <path class="cls-5" d="M1261.07,654.65c3.43,0,6.62,1.44,9.55,4.31,2.93,2.87,4.4,6.03,4.4,9.46,0,.53-.39,1.05-1.15,1.55-.77.5-1.45.76-2.04.76-.95,0-1.84-.24-2.67-.71-.77-2.31-1.18-3.49-1.24-3.55-.47-1.12-1.19-2.16-2.13-3.11-3.43.36-5.89,4.47-7.37,12.35-.95,5.09-1.36,10.42-1.24,15.99,2.13.18,4.26.39,6.4.62,2.61.59,3.91,1.95,3.91,4.09l-1.15,1.87c-1.12.53-2.75.86-4.88.98-2.43.12-4.09.3-4.97.53-.59,2.9-.89,6.31-.89,10.22,0,1.66.06,4.13.18,7.42.12,3.29.18,5.76.18,7.42s-1.05,2.58-3.16,2.58c-2.87,0-4.6-.12-5.18-.36-1.42-.53-2.13-1.95-2.13-4.26,0-6.93.32-14.48.98-22.65h-1.51c-1.66.12-3.17-.14-4.53-.79-1.66-.76-2.49-1.9-2.49-3.42,0-1.7,1.92-2.54,5.77-2.54,1.95,0,2.96-.56,3.02-1.69.12-2.49.41-6.93.89-13.32,1.36-15.81,5.86-23.72,13.5-23.72Z"/>
    <path class="cls-5" d="M1276.79,713.37l-.27,1.95c0,2.19.27,3.76.8,4.71.71,1.3,2.07,1.95,4.09,1.95,4.68,0,10.01-2.58,15.99-7.73,1.01-.89,2.07-1.78,3.2-2.67,1.54,0,2.31.86,2.31,2.58,0,3.08-2.64,6.22-7.91,9.42-4.86,2.96-8.94,4.44-12.26,4.44-2.01,0-4.86-1.01-8.53-3.02-2.78-1.54-4.68-3.61-5.68-6.22-.77-2.01-1.15-4.85-1.15-8.53,0-4.74.59-9.21,1.78-13.41,1.72-6.1,4.38-9.15,7.99-9.15,3.85,0,7.79,1.21,11.81,3.64,4.5,2.73,6.75,5.92,6.75,9.59,0,3.91-2.28,7.11-6.84,9.59-3.97,2.13-7.99,3.08-12.08,2.84ZM1287.54,698.35c0-2.66-1.15-4-3.46-4-2.07,0-3.82,1.87-5.24,5.6-1.07,2.84-1.6,5.54-1.6,8.08,2.72,0,5.12-.93,7.2-2.8,2.07-1.87,3.11-4.16,3.11-6.88Z"/>
  </g>
</svg>